# xmcd
#
# Track frame offsets:
# 150
# 26560
# 38737
# 56420
# 67806
# 86987
# 102282
# 114993
# 128620
# 144018
# 159294
# 184716
# 202862
# 215488
# 229249
# 245385
# 268153
# 284953
#
# Disc length: 3984 seconds
#
#
# Revision: 2
# Processed by: cddbd v1.5.2PL0 Copyright (c) Steve Scherf et al.
# Submitted via: FreeRIP 2.944 
#
DISCID=f90f8e12
DTITLE=So Modao Acustico e Ao Vivo - So Modao Acustico e Ao Vivo
DYEAR=2004
DGENRE=Country
TTITLE0=Do Outro Lado da Cidade - Crises de Amor - Guilherme e Santiago
TTITLE1=Minha Serenata - Joao Mineiro e Marciano
TTITLE2=Sonhei com Voce - Di Paula e Paulino
TTITLE3=Quarto Triste - Rio Negro e Solimoes
TTITLE4=Jogo Aberto - Ataide e Alexandre
TTITLE5=Blusa Vermelha - Guilherme e Santiago
TTITLE6=Barco de Papel - Di Paula e Paulino
TTITLE7=Esta Noite como Lembrancas - Joao Mineiro e Marciano
TTITLE8=Porta do Mundo - Rick e Renner
TTITLE9=Canarinho Prisioneiro - Chico Rey e Parana
TTITLE10=Boate Azul - Dama de Vermelho - Bruno e Marrone
TTITLE11=Frio da Madrugada - Rio Negro e Solimoes
TTITLE12=Vestido de Seda - Felipe e Falcao
TTITLE13=Meu Desespero - Joao Mineiro e Marciano
TTITLE14=Encanto e Magia - Chico Rey e Parana
TTITLE15=Telefone Mudo - Di Paula e Paulino
TTITLE16=Arrependida - Felipe e Falcao
TTITLE17=Alam Transparente - Chico Rey e Parana
EXTD=
EXTT0=
EXTT1=
EXTT2=
EXTT3=
EXTT4=
EXTT5=
EXTT6=
EXTT7=
EXTT8=
EXTT9=
EXTT10=
EXTT11=
EXTT12=
EXTT13=
EXTT14=
EXTT15=
EXTT16=
EXTT17=
PLAYORDER=
